<svg viewBox="0 0 28 30" fill="none" xmlns="http://www.w3.org/2000/svg">
<path fill-rule="evenodd" clip-rule="evenodd" d="M10.0615 0.93646C12.2262 -0.312288 14.8929 -0.312344 17.0576 0.93646L23.6162 4.72064C25.7831 5.97078 27.1182 8.28248 27.1182 10.7841V18.3417C27.1182 20.8434 25.7832 23.1551 23.6162 24.4052L17.0576 28.1894C14.893 29.4382 12.2262 29.438 10.0615 28.1894L3.50195 24.4052C1.33509 23.1551 0 20.8434 0 18.3417V10.7841C0 8.28255 1.33521 5.97081 3.50195 4.72064L10.0615 0.93646ZM18.7393 6.29974C18.4283 6.11638 18.0429 6.11494 17.7305 6.29583L12.9912 9.03998C12.3249 9.42579 12.3257 10.3885 12.9932 10.7724L16.668 12.8847C16.9782 13.0631 17.1689 13.394 17.1689 13.7519V17.8417C17.1689 18.613 18.0052 19.0937 18.6719 18.706L22.8105 16.2978C23.1182 16.1187 23.3076 15.7895 23.3076 15.4335V9.56537C23.3075 9.21165 23.1201 8.88477 22.8154 8.70501L18.7393 6.29974Z" fill="#6159FF"/>
</svg>
